<?xml version="1.0" encoding="utf-8"?>
<!-- Generator: Adobe Illustrator 22.0.1, SVG Export Plug-In . SVG Version: 6.00 Build 0)  -->
<svg version="1.1" id="Layer_1" xmlns="http://www.w3.org/2000/svg" xmlns:xlink="http://www.w3.org/1999/xlink" x="0px" y="0px"
	 viewBox="0 0 521.4 78" style="enable-background:new 0 0 521.4 78;" xml:space="preserve">
<style type="text/css">
	.st0{fill:#414042;}
</style>
<g>
	<path class="st0" d="M51.3,12h10.3L48.2,60h-9.9l-7.6-31.5L23.2,60h-9.9L0.1,12h10.4l7.7,30.3L26.1,12h9.8l7.5,30.8L51.3,12z"/>
	<path class="st0" d="M80.5,60h-9.9V12h9.9v20.3h18.2V12h9.9v48h-9.9V40.4H80.5V60z"/>
	<path class="st0" d="M130.5,31.9h16.8v8.1h-16.8v12h16.8V60h-26.7V12h26.7V20h-16.8V31.9z"/>
	<path class="st0" d="M167.4,31.9h16.8v8.1h-16.8v12h16.8V60h-26.7V12h26.7V20h-16.8V31.9z"/>
	<path class="st0" d="M222,51.9V60h-25.9V12h9.9v39.9H222z"/>
	<path class="st0" d="M232.2,12h13.6c7.8,0,13,1.6,17.3,5.3c4.9,4.3,7.6,10.6,7.6,18.1c0,7.7-2.7,14.6-7.6,19
		c-4,3.6-9.7,5.5-16.6,5.5h-14.2V12z M242.1,51.9h1.9c5.3,0,8.5-0.9,11.3-3.3c3.5-3,5.4-7.5,5.4-12.8c0-9.6-5.8-15.8-15-15.8h-3.6
		V51.9z"/>
	<path class="st0" d="M291.4,31.9h16.8v8.1h-16.8v12h16.8V60h-26.7V12h26.7V20h-16.8V31.9z"/>
	<path class="st0" d="M330,60h-9.9V12h9.7l20.1,30V12h9.9v48h-9.6L330,29.6V60z"/>
	<path class="st0" d="M437.8,53.7c-5.5,5.2-10.7,7.3-17.9,7.3c-7.1,0-13-2.4-17.2-7.2c-4.1-4.5-6.5-11-6.5-17.6
		c0-14.6,9.9-25.1,23.8-25.1c7.4,0,12.5,2.1,18.1,7.6l-6.4,6.5c-3.9-3.5-7.2-5-11.2-5c-8.4,0-14.3,6.5-14.3,15.7s6.2,15.9,14.8,15.9
		c4.4,0,7.8-1.5,10.7-4.9L437.8,53.7z"/>
	<path class="st0" d="M487.5,19.1c4.1,4.6,6.1,10.2,6.1,17.1c0,13.7-10.9,24.7-24.6,24.7c-14,0-25.1-10.9-25.1-24.7
		C444,22,455,11,469.2,11C476.3,11,482.8,13.9,487.5,19.1z M454.1,36.1c0,8.9,6.4,15.8,14.8,15.8c8.3,0,14.8-6.8,14.8-15.6
		c0-9.3-6.2-16.1-14.7-16.1C460.4,20.2,454.1,27,454.1,36.1z"/>
	<path class="st0" d="M513.8,55.8c0,3-2.3,5.2-5.3,5.2c-3.1,0-5.3-2.2-5.3-5.3c0-3,2.2-5.3,5.4-5.3
		C511.6,50.4,513.8,52.6,513.8,55.8z"/>
</g>
<g>
</g>
<g>
</g>
<g>
</g>
<g>
</g>
<g>
</g>
<g>
</g>
</svg>
