<?xml version="1.0" encoding="utf-8"?>
<!-- Generator: Adobe Illustrator 22.0.1, SVG Export Plug-In . SVG Version: 6.00 Build 0)  -->
<svg version="1.1" id="Layer_1" xmlns="http://www.w3.org/2000/svg" xmlns:xlink="http://www.w3.org/1999/xlink" x="0px" y="0px"
	 viewBox="0 0 368.3 195.3" style="enable-background:new 0 0 368.3 195.3;" xml:space="preserve">
<style type="text/css">
	.st0{fill:#414042;}
	.st1{fill:none;stroke:#414042;stroke-width:4;stroke-miterlimit:10;}
</style>
<g>
	<path class="st0" d="M51.3,12h10.3L48.2,60h-9.9l-7.6-31.5L23.2,60h-9.9L0.1,12h10.4l7.7,30.3L26.1,12h9.8l7.5,30.8L51.3,12z"/>
	<path class="st0" d="M80.5,60h-9.9V12h9.9v20.3h18.2V12h9.9v48h-9.9V40.4H80.5V60z"/>
	<path class="st0" d="M130.5,31.9h16.8v8.1h-16.8v12h16.8V60h-26.7V12h26.7V20h-16.8V31.9z"/>
	<path class="st0" d="M167.4,31.9h16.8v8.1h-16.8v12h16.8V60h-26.7V12h26.7V20h-16.8V31.9z"/>
	<path class="st0" d="M222,51.9V60h-25.9V12h9.9v39.9H222z"/>
	<path class="st0" d="M232.2,12h13.6c7.8,0,13,1.6,17.3,5.3c4.9,4.3,7.6,10.6,7.6,18.1c0,7.7-2.7,14.6-7.6,19
		c-4,3.6-9.7,5.5-16.6,5.5h-14.2V12z M242.1,51.9h1.9c5.3,0,8.5-0.9,11.3-3.3c3.5-3,5.4-7.5,5.4-12.8c0-9.6-5.8-15.8-15-15.8h-3.6
		V51.9z"/>
	<path class="st0" d="M291.4,31.9h16.8v8.1h-16.8v12h16.8V60h-26.7V12h26.7V20h-16.8V31.9z"/>
	<path class="st0" d="M330,60h-9.9V12h9.7l20.1,30V12h9.9v48h-9.6L330,29.6V60z"/>
</g>
<g>
	<path class="st0" d="M179.1,126.4c-4.8,4.1-9.1,5.7-15,5.7c-6.1,0-11-2-14.6-6.1c-3.4-3.8-5.4-9.1-5.4-14.6
		c0-6.5,2.6-12.5,7.1-16.4c3.5-3,7.9-4.5,13.3-4.5c3.4,0,6.7,0.7,9.5,2c2,1,3.3,1.9,5.7,4.1l-6.2,6.5c-2.8-2.5-5.5-3.6-8.6-3.6
		c-6.4,0-10.9,4.7-10.9,11.6c0,7.1,4.7,12,11.5,12c3.4,0,5.9-1.1,8-3.4L179.1,126.4z"/>
	<path class="st0" d="M226.5,111.4c0,11.5-9.4,20.7-20.9,20.7c-11.9,0-21.4-9.1-21.4-20.6c0-5.8,2.3-11.2,6.7-15.4
		c3.8-3.6,9.1-5.6,14.9-5.6C217.6,90.5,226.5,99.5,226.5,111.4z M194.1,111.3c0,6.6,5,11.8,11.3,11.8c6.2,0,11.3-5.2,11.3-11.6
		c0-6.8-4.8-12-11.2-12C198.9,99.5,194.1,104.6,194.1,111.3z"/>
	<path class="st0" d="M244.3,127.2c0,2.9-2.2,5-5,5c-2.9,0-5-2.1-5-5c0-2.9,2.1-5,5.1-5C242.2,122.1,244.3,124.3,244.3,127.2z"/>
</g>
<g>
	<path class="st0" d="M60.5,171.7h3.7v-9.4h4.7v24h-4.7v-10.7h-3.7v10.7h-4.7v-24h4.7V171.7z"/>
	<path class="st0" d="M79,182.6l-0.7,3.7h-4.7l5.4-24.1h5.2l5.3,24.1h-4.9l-0.6-3.7H79z M81.6,167.8l-1.9,10.9h3.6L81.6,167.8z"/>
	<path class="st0" d="M99.1,162.3l4.2,14.6v-14.6h4.3v24h-4.8l-4.3-13.7v13.7h-4.3v-24H99.1z"/>
	<path class="st0" d="M119,162.3c3.1,0,5.1,0.8,6.4,2.7c1.4,2.1,2,4.8,2,8.9c0,8.4-2.6,12.4-7.9,12.4h-5.8v-24H119z M118.9,182.6
		c1.1,0,2-0.4,2.6-1.2c0.8-1,1.2-3.1,1.2-7.1c0-4.2-0.4-6.3-1.3-7.3c-0.6-0.6-1.5-1-2.5-1h-0.5v16.6H118.9z"/>
	<path class="st0" d="M138.1,162.3l3.9,15.2l3.9-15.2h5.1v24h-4.3v-14.7l-2.9,11.8h-3.7l-2.9-11.8v14.7h-4.3v-24H138.1z"/>
	<path class="st0" d="M161.1,182.6l-0.7,3.7h-4.7l5.4-24.1h5.2l5.3,24.1h-4.9l-0.6-3.7H161.1z M163.7,167.8l-1.9,10.9h3.6
		L163.7,167.8z"/>
	<path class="st0" d="M181.6,162.3c3.1,0,5.1,0.8,6.4,2.7c1.4,2.1,2,4.8,2,8.9c0,8.4-2.6,12.4-7.9,12.4h-5.8v-24H181.6z
		 M181.4,182.6c1.1,0,2-0.4,2.6-1.2c0.8-1,1.2-3.1,1.2-7.1c0-4.2-0.4-6.3-1.3-7.3c-0.6-0.6-1.5-1-2.5-1h-0.5v16.6H181.4z"/>
	<path class="st0" d="M205.3,162.3v4h-5.4v5.7h5.4v3.9h-5.4v6.5h5.4v4h-10.1v-24H205.3z"/>
	<path class="st0" d="M235.7,171.9v2.4c0,4.5-0.3,6.7-1.3,8.8c-1,2.3-3.3,3.7-5.9,3.7c-2.4,0-4.7-1.3-5.7-3.3
		c-1.1-2.1-1.6-4.9-1.6-8.9c0-4.5,0.6-7.7,1.8-9.9c1-2,3.2-3.1,5.8-3.1c3.6,0,5.8,1.8,6.4,5.1l-4.2,1.5c-0.3-1.8-1-2.7-2.1-2.7
		c-1.9,0-2.8,2.6-2.8,8.6c0,6.5,0.7,8.7,2.6,8.7c0.8,0,1.4-0.5,1.8-1.4c0.4-0.9,0.5-1.8,0.5-5.7h-2.8v-3.9H235.7z"/>
	<path class="st0" d="M252.5,163.9c1.7,2.3,2.3,5.1,2.3,10.6c0,5-0.6,7.9-2.3,10.2c-1,1.4-2.8,2.2-4.9,2.2c-2.2,0-3.9-0.8-5-2.2
		c-1.7-2.3-2.3-5.1-2.3-10.4c0-5.3,0.6-8.1,2.3-10.4c1.1-1.4,2.8-2.2,4.9-2.2C249.7,161.7,251.4,162.4,252.5,163.9z M245.1,174.3
		c0,6.6,0.6,8.5,2.4,8.5c1.8,0,2.4-2,2.4-8.4c0-6.7-0.5-8.6-2.4-8.6C245.7,165.7,245.1,167.7,245.1,174.3z"/>
	<path class="st0" d="M271.6,163.9c1.7,2.3,2.3,5.1,2.3,10.6c0,5-0.6,7.9-2.3,10.2c-1,1.4-2.8,2.2-4.9,2.2c-2.2,0-3.9-0.8-5-2.2
		c-1.7-2.3-2.3-5.1-2.3-10.4c0-5.3,0.6-8.1,2.3-10.4c1.1-1.4,2.8-2.2,4.9-2.2C268.8,161.7,270.5,162.4,271.6,163.9z M264.3,174.3
		c0,6.6,0.6,8.5,2.4,8.5c1.8,0,2.4-2,2.4-8.4c0-6.7-0.5-8.6-2.4-8.6C264.8,165.7,264.3,167.7,264.3,174.3z"/>
	<path class="st0" d="M284.6,162.3c3.1,0,5.1,0.8,6.4,2.7c1.4,2.1,2,4.8,2,8.9c0,8.4-2.6,12.4-7.9,12.4h-5.8v-24H284.6z
		 M284.5,182.6c1.1,0,2-0.4,2.6-1.2c0.8-1,1.2-3.1,1.2-7.1c0-4.2-0.4-6.3-1.3-7.3c-0.6-0.6-1.5-1-2.5-1H284v16.6H284.5z"/>
	<path class="st0" d="M306.6,168.7c-0.3-2.1-1-3.1-2.3-3.1c-1.2,0-2,0.9-2,2.2s0.6,2.1,2.6,3.8l2.2,1.9c2.6,2.2,3.6,4,3.6,6.5
		c0,4.2-2.8,7-6.9,7c-3.7,0-6.1-2.2-6.7-6.1l4.3-1c0.4,2,1.3,3.1,2.6,3.1c1.2,0,2.1-1,2.1-2.3c0-1.2-0.7-2.2-2.5-3.7l-2.3-2
		c-0.8-0.7-1.6-1.5-2.3-2.5c-0.9-1.2-1.3-2.4-1.3-4.1c0-4,2.6-6.5,6.6-6.5c3.5,0,5.6,1.8,6.4,5.7L306.6,168.7z"/>
</g>
<line class="st1" x1="18.9" y1="112.4" x2="128.9" y2="112.4"/>
<line class="st1" x1="342.1" y1="112.4" x2="256.8" y2="112.4"/>
<g>
</g>
<g>
</g>
<g>
</g>
<g>
</g>
<g>
</g>
<g>
</g>
</svg>
